# xmcd
#
# Track frame offsets:
# 150
# 16609
# 35820
# 51545
# 71687
# 86010
# 107314
# 124965
# 144864
# 162698
#
# Disc length: 2365 seconds
#
#
# Revision: 0
# Processed by: cddbd v1.5.2PL0 Copyright (c) Steve Scherf et al.
# Submitted via: Nero 7, 11, 10, 0 
#
DISCID=88093b0a
DTITLE=Randy McAllister - Ain't Like The Movies
DYEAR=2008
DGENRE=Blues
TTITLE0=Ain't Like The Movies
TTITLE1=I Know The Girl
TTITLE2=Somebody Else To Drive
TTITLE3=Now And Then
TTITLE4=An Occasional Perfect Day
TTITLE5=Distance
TTITLE6=Hardheaded
TTITLE7=Patch Kit
TTITLE8=Far As A Star
TTITLE9=Monkeys In Sombreros
EXTD=
EXTT0=Ain't Like The Movies
EXTT1=I Know The Girl
EXTT2=Somebody Else To Drive
EXTT3=Now And Then
EXTT4=An Occasional Perfect Day
EXTT5=Distance
EXTT6=Hardheaded
EXTT7=Patch Kit
EXTT8=Far As A Star
EXTT9=Monkeys In Sombreros
PLAYORDER=
